<svg width="1023" height="594" viewBox="0 0 1023 594" fill="none" xmlns="http://www.w3.org/2000/svg">
<mask id="mask0_2044_523" style="mask-type:alpha" maskUnits="userSpaceOnUse" x="19" y="64" width="1001" height="466">
<path d="M207.654 64.78H257.568L326.376 265H279L263.49 220.162H201.168L185.94 265H138.564L207.654 64.78ZM255.876 188.296L232.47 111.31L208.5 188.296H255.876ZM392.342 150.508V265H346.094V64.78H382.754L475.532 182.656V64.78H521.78V265H483.992L392.342 150.508ZM646.082 266.692C630.102 266.692 616.472 264.06 605.192 258.796C593.912 253.344 584.7 246.012 577.556 236.8C570.6 227.4 565.43 216.778 562.046 204.934C558.85 192.902 557.252 180.306 557.252 167.146V64.78H603.5V167.146C603.5 174.666 604.252 181.998 605.756 189.142C607.26 196.098 609.704 202.302 613.088 207.754C616.472 213.206 620.796 217.53 626.06 220.726C631.512 223.922 638.186 225.52 646.082 225.52C654.166 225.52 660.934 223.922 666.386 220.726C671.838 217.342 676.162 212.924 679.358 207.472C682.554 201.832 684.904 195.534 686.408 188.578C687.912 181.622 688.664 174.478 688.664 167.146V64.78H734.912V167.146C734.912 181.058 733.126 194.03 729.554 206.062C726.17 218.094 720.906 228.716 713.762 237.928C706.618 246.952 697.406 254.002 686.126 259.078C675.034 264.154 661.686 266.692 646.082 266.692ZM756.241 217.906C758.121 219.222 762.069 221.102 768.085 223.546C774.289 225.802 781.527 226.93 789.799 226.93C796.379 226.93 801.737 225.802 805.873 223.546C810.197 221.29 813.393 217.906 815.461 213.394C817.717 208.694 819.221 202.678 819.973 195.346C820.725 187.826 821.101 178.802 821.101 168.274V64.78H867.349V166.582C867.349 181.622 866.503 195.346 864.811 207.754C863.119 220.162 859.641 230.972 854.377 240.184C849.301 249.208 841.593 256.164 831.253 261.052C820.913 265.752 807.095 268.102 789.799 268.102C780.963 268.102 772.973 267.068 765.829 265C758.685 262.932 752.105 259.83 746.089 255.694L756.241 217.906Z" fill="black" fill-opacity="0.1"/>
<path d="M19.176 528V327.78H65.424V414.072L138.744 327.78H190.632L115.62 417.174L195.708 528H142.692L86.292 447.63L65.424 469.062V528H19.176ZM296.582 529.692C280.602 529.692 266.972 527.06 255.692 521.796C244.412 516.344 235.2 509.012 228.056 499.8C221.1 490.4 215.93 479.778 212.546 467.934C209.35 455.902 207.752 443.306 207.752 430.146V327.78H254V430.146C254 437.666 254.752 444.998 256.256 452.142C257.76 459.098 260.204 465.302 263.588 470.754C266.972 476.206 271.296 480.53 276.56 483.726C282.012 486.922 288.686 488.52 296.582 488.52C304.666 488.52 311.434 486.922 316.886 483.726C322.338 480.342 326.662 475.924 329.858 470.472C333.054 464.832 335.404 458.534 336.908 451.578C338.412 444.622 339.164 437.478 339.164 430.146V327.78H385.412V430.146C385.412 444.058 383.626 457.03 380.054 469.062C376.67 481.094 371.406 491.716 364.262 500.928C357.118 509.952 347.906 517.002 336.626 522.078C325.534 527.154 312.186 529.692 296.582 529.692ZM579.166 528V408.714L536.02 495.57H510.64L467.494 408.714V528H421.246V327.78H471.442L523.33 432.402L575.5 327.78H625.414V528H579.166ZM714.343 327.78H764.257L833.065 528H785.689L770.179 483.162H707.857L692.629 528H645.253L714.343 327.78ZM762.565 451.296L739.159 374.31L715.189 451.296H762.565ZM852.783 528V327.78H943.023C952.423 327.78 961.071 329.754 968.967 333.702C977.051 337.462 984.007 342.632 989.835 349.212C995.663 355.604 1000.18 362.842 1003.37 370.926C1006.76 379.01 1008.45 387.188 1008.45 395.46C1008.45 403.732 1007.13 411.628 1004.5 419.148C1001.87 426.48 998.107 433.154 993.219 439.17C988.331 444.998 982.503 449.792 975.735 453.552L1019.73 528H968.685L930.333 463.422H899.031V528H852.783ZM899.031 423.096H941.331C945.091 423.096 948.381 421.968 951.201 419.712C954.209 417.268 956.653 413.978 958.533 409.842C960.413 405.706 961.353 400.912 961.353 395.46C961.353 390.008 960.225 385.308 957.969 381.36C955.901 377.224 953.269 374.028 950.073 371.772C946.877 369.516 943.493 368.388 939.921 368.388H899.031V423.096Z" fill="black" fill-opacity="0.1"/>
</mask>
<g mask="url(#mask0_2044_523)">
<g filter="url(#filter0_f_2044_523)">
<ellipse cx="510.5" cy="311.5" rx="558.5" ry="309.5" fill="url(#paint0_radial_2044_523)"/>
</g>
<g filter="url(#filter1_f_2044_523)">
<ellipse cx="524.5" cy="314" rx="296.5" ry="207" fill="white"/>
</g>
</g>
<defs>
<filter id="filter0_f_2044_523" x="-151.8" y="-101.8" width="1324.6" height="826.6" filterUnits="userSpaceOnUse" color-interpolation-filters="sRGB">
<feFlood flood-opacity="0" result="BackgroundImageFix"/>
<feBlend mode="normal" in="SourceGraphic" in2="BackgroundImageFix" result="shape"/>
<feGaussianBlur stdDeviation="51.9" result="effect1_foregroundBlur_2044_523"/>
</filter>
<filter id="filter1_f_2044_523" x="159.8" y="38.8" width="729.4" height="550.4" filterUnits="userSpaceOnUse" color-interpolation-filters="sRGB">
<feFlood flood-opacity="0" result="BackgroundImageFix"/>
<feBlend mode="normal" in="SourceGraphic" in2="BackgroundImageFix" result="shape"/>
<feGaussianBlur stdDeviation="34.1" result="effect1_foregroundBlur_2044_523"/>
</filter>
<radialGradient id="paint0_radial_2044_523" cx="0" cy="0" r="1" gradientUnits="userSpaceOnUse" gradientTransform="translate(510.5 311.5) rotate(90) scale(309.5 558.5)">
<stop stop-color="#EEEEEE"/>
<stop offset="1" stop-color="#6C6C6C"/>
</radialGradient>
</defs>
</svg>
