<svg width="1128" height="658" viewBox="0 0 1128 658" fill="none" xmlns="http://www.w3.org/2000/svg">
<mask id="mask0_2044_523" style="mask-type:alpha" maskUnits="userSpaceOnUse" x="15" y="79" width="1112" height="504">
<path d="M202.719 320H148.417L231.239 79.9121H296.659L379.32 320H325.18L264.916 134.697H262.982L202.719 320ZM199.496 225.576H327.919V265.215H199.496V225.576ZM584.939 79.9121V320H541.111L436.858 169.019H434.763V320H384.167V79.9121H428.64L532.248 230.894H534.343V79.9121H584.939ZM750.918 79.9121H801.675V235.728C801.675 253.237 797.486 268.599 789.107 281.812C780.835 294.917 769.234 305.122 754.302 312.427C739.371 319.731 721.968 323.384 702.095 323.384C682.222 323.384 664.82 319.731 649.888 312.427C634.956 305.122 623.355 294.917 615.083 281.812C606.812 268.599 602.676 253.237 602.676 235.728V79.9121H653.272V231.538C653.272 240.669 655.313 248.833 659.395 256.03C663.477 263.12 669.17 268.706 676.475 272.788C683.78 276.763 692.32 278.75 702.095 278.75C711.978 278.75 720.572 276.763 727.876 272.788C735.181 268.706 740.821 263.12 744.795 256.03C748.877 248.833 750.918 240.669 750.918 231.538V79.9121ZM886.444 323.223C871.942 323.223 858.622 320.645 846.483 315.488C834.344 310.332 824.623 302.544 817.318 292.124C810.013 281.704 806.361 268.438 806.361 252.324V249.585H856.957V252.324C856.957 258.662 858.192 264.087 860.663 268.599C863.133 273.11 866.571 276.602 870.975 279.072C875.38 281.436 880.536 282.617 886.444 282.617C892.674 282.617 897.938 281.274 902.235 278.589C906.639 275.903 909.969 271.982 912.225 266.826C914.481 261.562 915.609 255.117 915.609 247.49V79.9121H965.721V247.49C965.721 262.852 962.499 276.226 956.053 287.612C949.608 298.999 940.423 307.808 928.5 314.038C916.683 320.161 902.665 323.223 886.444 323.223Z" fill="black" fill-opacity="0.1"/>
<path d="M15.4688 579V338.912H66.0645V444.776H69.2871L155.654 338.912H216.401L127.456 446.388L217.529 579H156.782L91.04 480.387L66.0645 510.841V579H15.4688ZM367.396 338.912H418.153V494.728C418.153 512.237 413.963 527.599 405.584 540.812C397.313 553.917 385.711 564.122 370.779 571.427C355.848 578.731 338.446 582.384 318.572 582.384C298.699 582.384 281.297 578.731 266.365 571.427C251.434 564.122 239.832 553.917 231.561 540.812C223.289 527.599 219.154 512.237 219.154 494.728V338.912H269.749V490.538C269.749 499.669 271.79 507.833 275.872 515.03C279.954 522.12 285.648 527.706 292.952 531.788C300.257 535.763 308.797 537.75 318.572 537.75C328.455 537.75 337.049 535.763 344.354 531.788C351.658 527.706 357.298 522.12 361.273 515.03C365.355 507.833 367.396 499.669 367.396 490.538V338.912ZM436.051 338.912H498.732L564.796 500.206H567.536L633.761 338.912H696.603V579H646.974V422.701H645.04L582.682 577.872H549.166L487.291 422.379H485.358V579H436.051V338.912ZM755.752 579H701.45L784.272 338.912H849.692L932.353 579H878.213L817.949 393.697H816.015L755.752 579ZM752.529 484.576H880.952V524.215H752.529V484.576ZM937.2 579V338.912H1031.78C1049.94 338.912 1065.41 342.135 1078.19 348.58C1091.08 355.025 1100.91 364.156 1107.68 375.973C1114.55 387.682 1117.99 401.485 1117.99 417.384C1117.99 433.282 1114.55 446.979 1107.68 458.473C1100.8 469.967 1090.81 478.775 1077.71 484.898C1064.71 490.914 1048.97 493.922 1030.5 493.922H967.171V453.155H1022.28C1032.05 453.155 1040.11 451.812 1046.45 449.127C1052.89 446.441 1057.67 442.467 1060.79 437.203C1064.01 431.939 1065.62 425.333 1065.62 417.384C1065.62 409.327 1064.01 402.613 1060.79 397.242C1057.67 391.764 1052.89 387.628 1046.45 384.835C1040 381.935 1031.89 380.484 1022.12 380.484H987.796V579H937.2ZM1070.46 579L1011.97 469.752H1066.75L1126.53 579H1070.46Z" fill="black" fill-opacity="0.1"/>
</mask>
<g mask="url(#mask0_2044_523)">
<g filter="url(#filter0_f_2044_523)">
<ellipse cx="563.5" cy="338.5" rx="573.5" ry="319.5" fill="url(#paint0_radial_2044_523)"/>
</g>
<g filter="url(#filter1_f_2044_523)">
<ellipse cx="563.5" cy="331" rx="278.5" ry="215" fill="white"/>
</g>
</g>
<defs>
<filter id="filter0_f_2044_523" x="-113.8" y="-84.8" width="1354.6" height="846.6" filterUnits="userSpaceOnUse" color-interpolation-filters="sRGB">
<feFlood flood-opacity="0" result="BackgroundImageFix"/>
<feBlend mode="normal" in="SourceGraphic" in2="BackgroundImageFix" result="shape"/>
<feGaussianBlur stdDeviation="51.9" result="effect1_foregroundBlur_2044_523"/>
</filter>
<filter id="filter1_f_2044_523" x="216.8" y="47.8" width="693.4" height="566.4" filterUnits="userSpaceOnUse" color-interpolation-filters="sRGB">
<feFlood flood-opacity="0" result="BackgroundImageFix"/>
<feBlend mode="normal" in="SourceGraphic" in2="BackgroundImageFix" result="shape"/>
<feGaussianBlur stdDeviation="34.1" result="effect1_foregroundBlur_2044_523"/>
</filter>
<radialGradient id="paint0_radial_2044_523" cx="0" cy="0" r="1" gradientUnits="userSpaceOnUse" gradientTransform="translate(563.5 338.5) rotate(90) scale(319.5 573.5)">
<stop stop-color="#EEEEEE"/>
<stop offset="1" stop-color="#6C6C6C"/>
</radialGradient>
</defs>
</svg>
