<svg width="1428" height="587" viewBox="0 0 1428 587" fill="none" xmlns="http://www.w3.org/2000/svg">
<mask id="mask0_2044_352" style="mask-type:alpha" maskUnits="userSpaceOnUse" x="16" y="43" width="1407" height="493">
<path d="M456.518 53.2727H508.795V193.066C508.795 209.222 504.951 223.296 497.261 235.29C489.571 247.213 478.847 256.455 465.09 263.016C451.333 269.506 435.354 272.751 417.152 272.751C398.739 272.751 382.653 269.506 368.896 263.016C355.139 256.455 344.451 247.213 336.832 235.29C329.212 223.296 325.403 209.222 325.403 193.066V53.2727H377.786V188.516C377.786 195.994 379.408 202.661 382.653 208.516C385.969 214.372 390.59 218.958 396.516 222.273C402.442 225.589 409.321 227.247 417.152 227.247C424.983 227.247 431.826 225.589 437.682 222.273C443.608 218.958 448.229 214.372 451.545 208.516C454.861 202.661 456.518 195.994 456.518 188.516V53.2727ZM582.09 53.2727V270H529.707V53.2727H582.09ZM703.376 43.1136L633.532 302.594H589.404L659.247 43.1136H703.376ZM841.858 53.2727H894.135V193.066C894.135 209.222 890.29 223.296 882.6 235.29C874.91 247.213 864.187 256.455 850.43 263.016C836.673 269.506 820.693 272.751 802.492 272.751C784.078 272.751 767.993 269.506 754.236 263.016C740.479 256.455 729.791 247.213 722.171 235.29C714.552 223.296 710.742 209.222 710.742 193.066V53.2727H763.125V188.516C763.125 195.994 764.748 202.661 767.993 208.516C771.309 214.372 775.93 218.958 781.856 222.273C787.782 225.589 794.661 227.247 802.492 227.247C810.323 227.247 817.166 225.589 823.021 222.273C828.948 218.958 833.569 214.372 836.884 208.516C840.2 202.661 841.858 195.994 841.858 188.516V53.2727ZM968.065 53.2727L1007.64 121.741H1009.34L1049.34 53.2727H1107.96L1042.56 161.636L1110.08 270H1049.97L1009.34 200.791H1007.64L967.006 270H907.322L974.52 161.636L909.015 53.2727H968.065Z" fill="black" fill-opacity="0.1"/>
<path d="M96.5114 533H16.4027V316.273H96.4055C118.487 316.273 137.5 320.612 153.445 329.289C169.459 337.896 181.805 350.313 190.483 366.539C199.161 382.695 203.499 402.025 203.499 424.531C203.499 447.106 199.161 466.507 190.483 482.734C181.876 498.96 169.565 511.412 153.55 520.089C137.536 528.696 118.523 533 96.5114 533ZM68.7855 488.342H94.5007C106.635 488.342 116.9 486.296 125.295 482.205C133.761 478.042 140.146 471.305 144.45 461.992C148.824 452.609 151.011 440.122 151.011 424.531C151.011 408.939 148.824 396.522 144.45 387.281C140.076 377.968 133.62 371.266 125.084 367.174C116.618 363.012 106.177 360.93 93.7599 360.93H68.7855V488.342ZM222.162 533V316.273H373.279V358.814H274.545V403.26H365.554V445.907H274.545V490.459H373.279V533H222.162ZM511.311 381.249C510.606 373.488 507.466 367.456 501.893 363.153C496.39 358.779 488.524 356.592 478.294 356.592C471.522 356.592 465.878 357.473 461.362 359.237C456.847 361.001 453.461 363.435 451.203 366.539C448.946 369.573 447.782 373.065 447.711 377.016C447.57 380.261 448.205 383.118 449.616 385.587C451.098 388.057 453.214 390.244 455.965 392.148C458.787 393.983 462.174 395.605 466.124 397.016C470.075 398.427 474.52 399.662 479.458 400.72L498.083 404.953C508.807 407.281 518.26 410.385 526.444 414.266C534.698 418.146 541.612 422.767 547.186 428.129C552.83 433.49 557.098 439.663 559.99 446.648C562.883 453.632 564.364 461.463 564.435 470.141C564.364 483.827 560.907 495.574 554.064 505.38C547.221 515.186 537.379 522.7 524.539 527.92C511.77 533.141 496.355 535.751 478.294 535.751C460.163 535.751 444.36 533.035 430.885 527.603C417.41 522.171 406.934 513.916 399.455 502.84C391.977 491.764 388.132 477.76 387.921 460.828H438.081C438.504 467.812 440.374 473.633 443.69 478.289C447.006 482.945 451.556 486.473 457.341 488.871C463.197 491.27 469.969 492.469 477.659 492.469C484.714 492.469 490.711 491.517 495.649 489.612C500.658 487.707 504.503 485.062 507.184 481.675C509.865 478.289 511.241 474.409 511.311 470.035C511.241 465.943 509.971 462.451 507.502 459.558C505.032 456.595 501.223 454.055 496.073 451.939C490.993 449.752 484.503 447.741 476.601 445.907L453.955 440.616C435.189 436.312 420.409 429.363 409.615 419.768C398.821 410.103 393.459 397.052 393.529 380.614C393.459 367.209 397.057 355.463 404.323 345.374C411.59 335.286 421.643 327.42 434.483 321.776C447.323 316.132 461.962 313.31 478.4 313.31C495.191 313.31 509.759 316.167 522.105 321.881C534.522 327.525 544.152 335.462 550.995 345.692C557.839 355.921 561.331 367.774 561.472 381.249H511.311ZM631.354 316.273V533H578.971V316.273H631.354ZM794.546 387.069C793.346 382.624 791.583 378.709 789.254 375.322C786.926 371.866 784.069 368.938 780.683 366.539C777.296 364.14 773.416 362.341 769.042 361.142C764.668 359.872 759.871 359.237 754.65 359.237C744.138 359.237 735.037 361.777 727.348 366.857C719.728 371.936 713.837 379.344 709.675 389.08C705.513 398.745 703.431 410.491 703.431 424.319C703.431 438.217 705.442 450.069 709.463 459.876C713.485 469.682 719.305 477.16 726.924 482.31C734.544 487.46 743.786 490.036 754.65 490.036C764.245 490.036 772.358 488.483 778.99 485.379C785.692 482.205 790.771 477.725 794.228 471.94C797.685 466.155 799.414 459.347 799.414 451.516L809.149 452.68H756.449V414.477H849.892V443.156C849.892 462.557 845.764 479.171 837.51 492.999C829.326 506.826 818.039 517.444 803.647 524.852C789.325 532.259 772.852 535.963 754.227 535.963C733.556 535.963 715.389 531.483 699.728 522.523C684.066 513.564 671.861 500.794 663.112 484.215C654.364 467.566 649.99 447.812 649.99 424.954C649.99 407.175 652.636 391.408 657.927 377.651C663.218 363.823 670.591 352.112 680.044 342.517C689.568 332.922 700.574 325.656 713.061 320.717C725.619 315.779 739.129 313.31 753.592 313.31C766.15 313.31 777.826 315.109 788.62 318.707C799.484 322.305 809.079 327.384 817.404 333.945C825.799 340.506 832.607 348.302 837.828 357.332C843.048 366.363 846.294 376.275 847.563 387.069H794.546ZM1053.3 316.273V533H1008.85L922.604 407.916H921.229V533H868.846V316.273H913.927L999.221 441.145H1001.02V316.273H1053.3ZM1074.31 533V316.273H1225.43V358.814H1126.7V403.26H1217.71V445.907H1126.7V490.459H1225.43V533H1074.31ZM1246.32 533V316.273H1335.84C1352.07 316.273 1366.07 319.201 1377.86 325.056C1389.71 330.841 1398.84 339.166 1405.26 350.031C1411.68 360.825 1414.89 373.629 1414.89 388.445C1414.89 403.472 1411.61 416.241 1405.05 426.753C1398.49 437.194 1389.18 445.166 1377.11 450.669C1365.05 456.101 1350.76 458.817 1334.26 458.817H1277.64V417.546H1324.52C1332.42 417.546 1339.02 416.523 1344.31 414.477C1349.67 412.361 1353.73 409.186 1356.48 404.953C1359.23 400.65 1360.61 395.147 1360.61 388.445C1360.61 381.742 1359.23 376.204 1356.48 371.83C1353.73 367.386 1349.67 364.07 1344.31 361.883C1338.95 359.625 1332.35 358.496 1324.52 358.496H1298.7V533H1246.32ZM1368.33 433.949L1422.3 533H1365.16L1312.24 433.949H1368.33Z" fill="black" fill-opacity="0.1"/>
</mask>
<g mask="url(#mask0_2044_352)">
<g filter="url(#filter0_f_2044_352)">
<ellipse cx="706.5" cy="328" rx="660.5" ry="305" fill="#BA8852"/>
</g>
</g>
<defs>
<filter id="filter0_f_2044_352" x="-174.5" y="-197.5" width="1762" height="1051" filterUnits="userSpaceOnUse" color-interpolation-filters="sRGB">
<feFlood flood-opacity="0" result="BackgroundImageFix"/>
<feBlend mode="normal" in="SourceGraphic" in2="BackgroundImageFix" result="shape"/>
<feGaussianBlur stdDeviation="110.25" result="effect1_foregroundBlur_2044_352"/>
</filter>
</defs>
</svg>
