<svg width="1356" height="568" viewBox="0 0 1356 568" fill="none" xmlns="http://www.w3.org/2000/svg">
<mask id="mask0_2092_32" style="mask-type:alpha" maskUnits="userSpaceOnUse" x="14" y="36" width="1341" height="489">
<path d="M434.766 47.0977H483.369V196.303C483.369 213.07 479.357 227.779 471.334 240.432C463.413 252.981 452.304 262.753 438.006 269.748C423.708 276.743 407.044 280.24 388.014 280.24C368.984 280.24 352.32 276.743 338.021 269.748C323.723 262.753 312.614 252.981 304.693 240.432C296.773 227.779 292.812 213.07 292.812 196.303V47.0977H341.262V192.291C341.262 201.035 343.216 208.852 347.125 215.744C351.034 222.533 356.486 227.882 363.48 231.791C370.475 235.597 378.653 237.5 388.014 237.5C397.477 237.5 405.706 235.597 412.701 231.791C419.696 227.882 425.096 222.533 428.902 215.744C432.811 208.852 434.766 201.035 434.766 192.291V47.0977ZM539.478 47.0977V277H491.028V47.0977H539.478ZM687.029 36.2969L612.966 311.562H571.769L645.831 36.2969H687.029ZM820.594 47.0977H869.198V196.303C869.198 213.07 865.186 227.779 857.163 240.432C849.242 252.981 838.133 262.753 823.834 269.748C809.536 276.743 792.872 280.24 773.842 280.24C754.812 280.24 738.148 276.743 723.85 269.748C709.552 262.753 698.443 252.981 690.522 240.432C682.601 227.779 678.641 213.07 678.641 196.303V47.0977H727.09V192.291C727.09 201.035 729.045 208.852 732.954 215.744C736.862 222.533 742.314 227.882 749.309 231.791C756.304 235.597 764.482 237.5 773.842 237.5C783.306 237.5 791.535 235.597 798.53 231.791C805.525 227.882 810.925 222.533 814.731 215.744C818.64 208.852 820.594 201.035 820.594 192.291V47.0977ZM922.529 47.0977L968.818 125.48H970.67L1017.11 47.0977H1072.04L1001.84 162.203L1073.74 277H1017.58L970.67 198.617H968.818L921.603 277H866.056L937.959 162.203L867.291 47.0977H922.529Z" fill="black" fill-opacity="0.1"/>
<path d="M96.2812 521H36.4141V479.34H94.1211C108.625 479.34 120.763 476.82 130.535 471.779C140.41 466.636 147.816 458.664 152.754 447.863C157.794 436.96 160.314 422.97 160.314 405.895C160.314 388.922 157.794 375.035 152.754 364.234C147.816 353.434 140.41 345.513 130.535 340.473C120.763 335.329 108.676 332.758 94.2754 332.758H35.4883V291.098H97.0527C120.197 291.098 140.102 295.727 156.766 304.984C173.43 314.139 186.236 327.306 195.186 344.484C204.135 361.56 208.609 382.03 208.609 405.895C208.609 429.862 204.083 450.435 195.031 467.613C186.082 484.792 173.224 498.01 156.457 507.268C139.69 516.423 119.632 521 96.2812 521ZM63.2617 291.098V521H14.8125V291.098H63.2617ZM212.103 521V291.098H367.017V331.215H260.552V385.219H358.993V424.564H260.552V480.883H367.325V521H212.103ZM458.459 524.24C439.944 524.24 423.794 521.411 410.01 515.754C396.329 510.096 385.631 501.661 377.916 490.449C370.304 479.237 366.293 465.35 365.881 448.789H412.787C413.405 456.401 415.668 462.83 419.576 468.076C423.485 473.219 428.731 477.077 435.315 479.648C441.898 482.22 449.459 483.506 457.996 483.506C466.226 483.506 473.375 482.323 479.444 479.957C485.615 477.591 490.347 474.299 493.639 470.082C497.033 465.762 498.731 460.773 498.731 455.115C498.731 449.972 497.188 445.652 494.102 442.154C491.119 438.657 486.696 435.674 480.832 433.205C475.072 430.736 468.026 428.525 459.694 426.57L434.543 420.398C415.205 415.77 399.929 408.415 388.717 398.334C377.505 388.15 371.899 374.572 371.899 357.6C371.899 343.713 375.653 331.575 383.162 321.186C390.774 310.693 401.112 302.567 414.176 296.807C427.343 290.943 442.309 288.012 459.076 288.012C476.152 288.012 491.016 290.943 503.668 296.807C516.423 302.67 526.35 310.796 533.448 321.186C540.648 331.575 544.351 343.559 544.557 357.137H497.805C496.982 348.188 493.125 341.193 486.233 336.152C479.444 331.112 470.237 328.592 458.614 328.592C450.796 328.592 444.11 329.723 438.555 331.986C433.103 334.146 428.937 337.181 426.057 341.09C423.177 344.999 421.737 349.473 421.737 354.514C421.737 359.863 423.382 364.389 426.674 368.092C429.966 371.692 434.337 374.675 439.789 377.041C445.344 379.304 451.413 381.207 457.996 382.75L478.518 387.842C488.496 390.105 497.702 393.139 506.137 396.945C514.572 400.648 521.875 405.226 528.047 410.678C534.322 416.13 539.156 422.559 542.551 429.965C545.946 437.268 547.643 445.703 547.643 455.27C547.643 469.362 544.094 481.603 536.996 491.992C530.002 502.279 519.869 510.251 506.6 515.908C493.33 521.463 477.283 524.24 458.459 524.24ZM596.191 291.098V521H547.742V291.098H596.191ZM708.155 524.086C686.553 524.086 667.575 519.354 651.219 509.891C634.967 500.324 622.263 486.746 613.108 469.156C604.056 451.464 599.53 430.531 599.53 406.357C599.53 381.464 604.262 360.223 613.725 342.633C623.292 324.94 636.201 311.413 652.454 302.053C668.706 292.692 686.965 288.012 707.229 288.012C720.19 288.012 732.277 289.915 743.489 293.721C754.701 297.424 764.679 302.773 773.422 309.768C782.166 316.66 789.264 324.837 794.715 334.301C800.27 343.661 803.819 354.051 805.362 365.469H756.141C754.598 360.017 752.387 355.182 749.506 350.965C746.729 346.645 743.283 343.044 739.168 340.164C735.054 337.181 730.374 334.918 725.127 333.375C719.984 331.729 714.275 330.906 708 330.906C696.274 330.906 685.936 333.838 676.987 339.701C668.14 345.462 661.197 353.948 656.157 365.16C651.219 376.372 648.75 389.951 648.75 405.895C648.75 421.839 651.219 435.417 656.157 446.629C661.094 457.841 667.986 466.43 676.833 472.396C685.782 478.26 696.325 481.191 708.463 481.191C719.47 481.191 728.831 479.237 736.545 475.328C744.363 471.316 750.329 465.71 754.444 458.51C758.661 451.309 760.77 442.823 760.77 433.051L770.645 434.594H711.549V398.025H807.676V427.033C807.676 447.195 803.407 464.527 794.87 479.031C786.332 493.535 774.554 504.696 759.536 512.514C744.62 520.229 727.493 524.086 708.155 524.086ZM1004.04 291.098V521H962.072L862.242 376.424H860.236V521H811.787V291.098H854.373L953.586 435.674H955.591V291.098H1004.04ZM1011.55 521V291.098H1166.46V331.215H1059.99V385.219H1158.44V424.564H1059.99V480.883H1166.77V521H1011.55ZM1172.73 521V291.098H1263.3C1280.69 291.098 1295.5 294.184 1307.74 300.355C1320.08 306.527 1329.5 315.271 1335.98 326.586C1342.56 337.798 1345.85 351.016 1345.85 366.24C1345.85 381.464 1342.56 394.579 1335.98 405.586C1329.39 416.592 1319.83 425.027 1307.28 430.891C1294.83 436.651 1279.76 439.531 1262.07 439.531H1201.43V400.494H1254.2C1263.56 400.494 1271.27 399.208 1277.34 396.637C1283.52 394.065 1288.09 390.259 1291.08 385.219C1294.16 380.178 1295.7 373.852 1295.7 366.24C1295.7 358.525 1294.16 352.096 1291.08 346.953C1288.09 341.707 1283.52 337.747 1277.34 335.072C1271.17 332.295 1263.41 330.906 1254.04 330.906H1221.18V521H1172.73ZM1300.33 521L1244.32 416.387H1296.79L1354.03 521H1300.33Z" fill="black" fill-opacity="0.1"/>
</mask>
<g mask="url(#mask0_2092_32)">
<g filter="url(#filter0_f_2092_32)">
<ellipse cx="677.5" cy="310.5" rx="660.5" ry="287.5" fill="#BA8852"/>
</g>
</g>
<defs>
<filter id="filter0_f_2092_32" x="-203.5" y="-197.5" width="1762" height="1016" filterUnits="userSpaceOnUse" color-interpolation-filters="sRGB">
<feFlood flood-opacity="0" result="BackgroundImageFix"/>
<feBlend mode="normal" in="SourceGraphic" in2="BackgroundImageFix" result="shape"/>
<feGaussianBlur stdDeviation="110.25" result="effect1_foregroundBlur_2092_32"/>
</filter>
</defs>
</svg>
