<svg width="190" height="105" viewBox="0 0 190 105" fill="none" xmlns="http://www.w3.org/2000/svg">
<path d="M2.0001 73.08C2.0001 73.2667 2.05344 73.3333 2.1601 73.28C2.26677 73.2533 2.34677 73.3067 2.4001 73.44C2.45344 73.5733 2.41344 73.6933 2.2801 73.8C2.14677 73.9067 1.97344 73.96 1.7601 73.96C1.38677 73.96 1.14677 73.76 1.0401 73.36C0.826771 72.5333 1.01344 71.1867 1.6001 69.32C2.18677 67.48 3.06677 65.2667 4.2401 62.68C5.41344 60.12 6.8401 57.2667 8.5201 54.12C10.2001 51 12.0534 47.7467 14.0801 44.36C12.8001 44.5467 11.5734 44.6933 10.4001 44.8C9.22677 44.88 8.10677 44.92 7.0401 44.92C5.9201 44.92 4.8801 44.8667 3.9201 44.76C2.9601 44.6533 2.0801 44.4533 1.2801 44.16C0.826771 44 0.506771 43.8133 0.320104 43.6C0.106771 43.3867 0.0134375 43.1733 0.0401043 42.96C0.0401043 42.7467 0.133438 42.5733 0.320104 42.44C0.506771 42.28 0.746771 42.2 1.0401 42.2C1.33344 42.2 1.6001 42.2533 1.8401 42.36C2.61344 42.68 3.5201 42.9067 4.5601 43.04C5.6001 43.1733 6.7601 43.24 8.0401 43.24C9.0801 43.24 10.1868 43.2 11.3601 43.12C12.5334 43.04 13.7601 42.92 15.0401 42.76C17.0934 39.3733 19.2534 35.9733 21.5201 32.56C23.8134 29.1467 26.1201 25.8533 28.4401 22.68C30.7868 19.5067 33.1201 16.5467 35.4401 13.8C37.7601 11.0267 39.9734 8.62666 42.0801 6.59999C44.2134 4.54666 46.2001 2.93332 48.0401 1.75999C49.9068 0.586654 51.5468 -1.33514e-05 52.9601 -1.33514e-05C53.3868 -1.33514e-05 53.7601 0.0533209 54.0801 0.159989C55.0934 0.453321 55.7734 1.14665 56.1201 2.23999C56.4934 3.33332 56.6001 4.73332 56.4401 6.43999C56.3068 8.14665 55.9468 10.12 55.3601 12.36C54.8001 14.6 54.0801 17.0133 53.2001 19.6C52.3468 22.1867 51.3601 24.9067 50.2401 27.76C49.1468 30.6133 48.0134 33.5067 46.8401 36.44C48.2001 36.2 49.3734 36.0267 50.3601 35.92C51.3734 35.8133 52.1734 35.8 52.7601 35.88C53.2401 35.9333 53.5734 36.04 53.7601 36.2C53.9734 36.36 54.0401 36.5333 53.9601 36.72C53.9068 36.88 53.7468 37.0267 53.4801 37.16C53.2134 37.2933 52.8668 37.36 52.4401 37.36C51.5068 37.36 50.5201 37.4133 49.4801 37.52C48.4401 37.6 47.3601 37.7067 46.2401 37.84C44.7734 41.4667 43.3068 45.0533 41.8401 48.6C40.3734 52.1467 39.0534 55.48 37.8801 58.6C36.7068 61.7467 35.7201 64.6 34.9201 67.16C34.1468 69.72 33.7068 71.8133 33.6001 73.44C33.6801 73.44 33.7734 73.4933 33.8801 73.6C33.9868 73.7067 34.0801 73.84 34.1601 74C34.2668 74.1867 34.3334 74.3867 34.3601 74.6C34.4134 74.84 34.4134 75.0667 34.3601 75.28C34.2534 75.6533 34.0668 75.9333 33.8001 76.12C33.5334 76.3333 33.2534 76.44 32.9601 76.44C32.4001 76.44 31.9334 76.1733 31.5601 75.64C31.2134 75.16 31.1068 74.2933 31.2401 73.04C31.4001 71.7867 31.7334 70.2533 32.2401 68.44C32.7734 66.6267 33.4534 64.56 34.2801 62.24C35.1334 59.9467 36.0668 57.4933 37.0801 54.88C38.0934 52.2667 39.1734 49.56 40.3201 46.76C41.4668 43.9333 42.6134 41.0933 43.7601 38.24C41.6268 38.5867 39.4001 39.0267 37.0801 39.56C34.7601 40.0667 32.4134 40.5867 30.0401 41.12C27.6934 41.6533 25.3468 42.1867 23.0001 42.72C20.6801 43.2267 18.4268 43.6667 16.2401 44.04C14.2401 47.24 12.3734 50.3333 10.6401 53.32C8.90677 56.3333 7.41344 59.12 6.1601 61.68C4.8801 64.24 3.8801 66.4933 3.1601 68.44C2.41344 70.4133 2.02677 71.96 2.0001 73.08ZM17.2001 42.48C19.4668 42.1333 21.8001 41.7333 24.2001 41.28C26.6001 40.8 28.9734 40.3067 31.3201 39.8C33.6934 39.2667 35.9734 38.76 38.1601 38.28C40.3734 37.7733 42.4134 37.3333 44.2801 36.96C45.4801 34 46.6401 31.0933 47.7601 28.24C48.8801 25.36 49.8934 22.64 50.8001 20.08C51.7068 17.4933 52.4801 15.1067 53.1201 12.92C53.7601 10.7067 54.1868 8.81332 54.4001 7.23999C54.6401 5.63999 54.6268 4.38665 54.3601 3.47999C54.1201 2.57332 53.5734 2.11999 52.7201 2.11999C52.3734 2.11999 51.9601 2.19999 51.4801 2.35999C50.2001 2.81332 48.7334 3.70665 47.0801 5.03999C45.4268 6.34666 43.6401 7.98666 41.7201 9.95999C39.8268 11.9067 37.8401 14.1333 35.7601 16.64C33.7068 19.1467 31.6134 21.8133 29.4801 24.64C27.3734 27.4667 25.2801 30.4 23.2001 33.44C21.1201 36.4533 19.1201 39.4667 17.2001 42.48ZM51.2273 52.64C51.5473 51.84 51.9606 50.96 52.4673 50C52.9473 49.04 53.454 48.0933 53.9873 47.16C54.5206 46.2267 55.054 45.3333 55.5873 44.48C56.1206 43.6267 56.6006 42.9067 57.0273 42.32C57.3473 41.84 57.7206 41.6 58.1473 41.6C58.5206 41.6 58.814 41.7733 59.0273 42.12C59.2406 42.44 59.214 42.7467 58.9473 43.04C58.5473 43.4933 58.0806 44.16 57.5473 45.04C57.014 45.92 56.494 46.7867 55.9873 47.64C55.4006 48.6533 54.814 49.72 54.2273 50.84C54.7606 50.1467 55.2806 49.48 55.7873 48.84C56.294 48.1733 56.7606 47.56 57.1873 47C57.6406 46.44 58.0406 45.96 58.3873 45.56C58.7606 45.16 59.0806 44.8933 59.3473 44.76C59.8006 44.4933 60.2273 44.36 60.6273 44.36C61.1606 44.36 61.5073 44.5867 61.6673 45.04C61.8273 45.4933 61.8006 46.0267 61.5873 46.64C61.4806 46.96 61.3206 47.3733 61.1073 47.88C60.894 48.36 60.694 48.8533 60.5073 49.36C60.3206 49.84 60.174 50.3067 60.0673 50.76C59.9606 51.1867 59.934 51.52 59.9873 51.76C60.0673 52.0267 60.214 52.16 60.4273 52.16C60.7473 52.16 61.2006 51.92 61.7873 51.44C62.374 50.9333 63.0273 50.32 63.7473 49.6C64.4673 48.8533 65.2006 48.04 65.9473 47.16C66.7206 46.28 67.4406 45.4667 68.1073 44.72C68.1873 44.6133 68.294 44.56 68.4273 44.56C68.5873 44.56 68.7073 44.64 68.7873 44.8C68.894 44.9333 68.8806 45.08 68.7473 45.24C68.0806 45.96 67.454 46.6667 66.8673 47.36C66.3073 48.0267 65.734 48.68 65.1473 49.32C64.5873 49.96 64.0006 50.5733 63.3873 51.16C62.774 51.7467 62.0806 52.3067 61.3073 52.84C60.8006 53.2133 60.2406 53.4 59.6273 53.4C59.2006 53.4 58.814 53.28 58.4673 53.04C58.1473 52.8 57.934 52.4 57.8273 51.84C57.774 51.44 57.8006 50.9867 57.9073 50.48C58.014 49.9733 58.1473 49.48 58.3073 49C58.4673 48.52 58.6273 48.08 58.7873 47.68C58.974 47.28 59.1206 47 59.2273 46.84C58.8806 47.0267 58.414 47.44 57.8273 48.08C57.2406 48.6933 56.6406 49.3733 56.0273 50.12C55.4406 50.84 54.894 51.5467 54.3873 52.24C53.854 52.9333 53.4673 53.4133 53.2273 53.68C52.854 54.1333 52.4806 54.36 52.1073 54.36C51.734 54.36 51.454 54.1733 51.2673 53.8C51.0806 53.4533 51.0673 53.0667 51.2273 52.64ZM70.3729 40.52C70.4796 40.3333 70.7062 40.24 71.0529 40.24C71.2396 40.24 71.4262 40.28 71.6129 40.36C71.8262 40.4133 71.9996 40.4933 72.1329 40.6C72.2929 40.68 72.3996 40.7867 72.4529 40.92C72.5329 41.0267 72.5329 41.1333 72.4529 41.24C72.2129 41.56 71.8529 42.0933 71.3729 42.84C70.8929 43.5867 70.4262 44.3867 69.9729 45.24C69.5462 46.0667 69.1996 46.8533 68.9329 47.6C68.6929 48.3467 68.6796 48.88 68.8929 49.2C68.9729 49.28 69.0529 49.32 69.1329 49.32C69.4262 49.32 69.8396 49.08 70.3729 48.6C70.9062 48.0933 71.4796 47.5067 72.0929 46.84C72.7329 46.1733 73.3729 45.4933 74.0129 44.8C74.6529 44.1067 75.2129 43.5467 75.6929 43.12C75.8796 42.96 76.0529 42.8533 76.2129 42.8C76.3729 42.7467 76.5196 42.72 76.6529 42.72C77.0262 42.72 77.3329 42.8533 77.5729 43.12C77.8129 43.36 77.9596 43.5467 78.0129 43.68C78.0929 43.92 78.0396 44.2933 77.8529 44.8C77.6929 45.28 77.4796 45.8267 77.2129 46.44C76.9729 47.0267 76.7196 47.6267 76.4529 48.24C76.1862 48.8267 75.9996 49.36 75.8929 49.84C75.7596 50.4533 75.7729 50.8933 75.9329 51.16C76.1196 51.4 76.3996 51.52 76.7729 51.52C77.3063 51.52 77.9596 51.32 78.7329 50.92C79.5329 50.4933 80.3462 49.96 81.1729 49.32C81.9996 48.68 82.7729 47.9733 83.4929 47.2C84.2129 46.4 84.7596 45.64 85.1329 44.92C85.1862 44.84 85.2663 44.8 85.3729 44.8C85.4796 44.8 85.5863 44.8267 85.6929 44.88C85.7996 44.9067 85.8796 44.96 85.9329 45.04C86.0129 45.0933 86.0262 45.16 85.9729 45.24C85.3063 46.2533 84.5329 47.2267 83.6529 48.16C82.7996 49.0667 81.9196 49.8667 81.0129 50.56C80.1063 51.2267 79.2129 51.76 78.3329 52.16C77.4796 52.56 76.7196 52.76 76.0529 52.76C75.3862 52.76 74.8796 52.5467 74.5329 52.12C74.1329 51.64 73.9729 51.04 74.0529 50.32C74.1329 49.6 74.3062 48.8667 74.5729 48.12C74.8396 47.3733 75.1196 46.6933 75.4129 46.08C75.7062 45.4667 75.8796 45.04 75.9329 44.8C76.0396 44.3733 75.9329 44.2933 75.6129 44.56C75.2929 44.8267 74.8529 45.2667 74.2929 45.88C73.7596 46.4667 73.1596 47.1333 72.4929 47.88C71.8262 48.6 71.1862 49.2133 70.5729 49.72C70.1196 50.0933 69.6662 50.4 69.2129 50.64C68.7596 50.88 68.3462 51 67.9729 51C67.5729 51 67.2662 50.8267 67.0529 50.48C66.8396 50.1333 66.7996 49.5333 66.9329 48.68C67.0396 47.96 67.2262 47.2133 67.4929 46.44C67.7329 45.6667 68.0262 44.92 68.3729 44.2C68.6929 43.48 69.0262 42.8133 69.3729 42.2C69.7196 41.56 70.0529 41 70.3729 40.52ZM88.2935 38.12C88.4535 37.7733 88.6135 37.4267 88.7735 37.08C88.9335 36.7067 89.0935 36.3733 89.2535 36.08C89.4135 35.76 89.5869 35.52 89.7735 35.36C89.9602 35.1733 90.1735 35.0933 90.4135 35.12C90.5735 35.1467 90.7335 35.2133 90.8935 35.32C91.0802 35.4267 91.2269 35.5467 91.3335 35.68C91.4669 35.8133 91.5602 35.96 91.6135 36.12C91.6669 36.28 91.6669 36.44 91.6135 36.6C91.5335 36.8133 91.4135 37.0667 91.2535 37.36C91.0935 37.6267 90.9069 37.9067 90.6935 38.2C90.5069 38.4667 90.3069 38.72 90.0935 38.96C89.8802 39.1733 89.6669 39.32 89.4535 39.4C89.3469 39.4533 89.2002 39.4533 89.0135 39.4C88.8535 39.3467 88.6935 39.2533 88.5335 39.12C88.4002 38.9867 88.3069 38.8267 88.2535 38.64C88.2002 38.4533 88.2135 38.28 88.2935 38.12ZM88.2535 42.68C87.2135 44.6 86.1469 46.6533 85.0535 48.84C83.9602 51.0267 82.8269 53.2933 81.6535 55.64C83.2535 54.68 84.7735 53.7467 86.2135 52.84C87.6535 51.9333 88.9869 51.04 90.2135 50.16C91.4669 49.28 92.5869 48.4 93.5735 47.52C94.5602 46.6133 95.4002 45.6933 96.0935 44.76C96.2269 44.6 96.3602 44.52 96.4935 44.52C96.6269 44.52 96.7335 44.5867 96.8135 44.72C96.9202 44.8533 96.9069 45.0267 96.7735 45.24C96.1069 46.2533 95.2402 47.24 94.1735 48.2C93.1069 49.1333 91.8802 50.08 90.4935 51.04C89.1335 52 87.6402 52.9733 86.0135 53.96C84.3869 54.9467 82.6802 56 80.8935 57.12C79.1869 60.56 77.4402 64.0533 75.6535 67.6C73.8669 71.1733 72.0535 74.6533 70.2135 78.04C68.3735 81.4533 66.5335 84.68 64.6935 87.72C62.8269 90.76 60.9735 93.4667 59.1335 95.84C57.2935 98.24 55.4802 100.213 53.6935 101.76C51.9069 103.307 50.1735 104.28 48.4935 104.68C48.0935 104.787 47.6802 104.84 47.2535 104.84C45.9202 104.84 44.9735 104.28 44.4135 103.16C43.8269 102.067 43.6269 100.573 43.8135 98.68C44.0002 96.8133 44.5869 94.6133 45.5735 92.08C46.5602 89.5733 47.9602 86.9067 49.7735 84.08C51.8802 80.7733 54.1469 77.7867 56.5735 75.12C59.0002 72.4533 61.4935 70.04 64.0535 67.88C66.5869 65.72 69.1335 63.7733 71.6935 62.04C74.2535 60.3067 76.7335 58.6933 79.1335 57.2C80.2535 54.8533 81.4002 52.4267 82.5735 49.92C83.7469 47.3867 84.9735 44.72 86.2535 41.92C86.4135 41.5467 86.6135 41.28 86.8535 41.12C87.0935 40.96 87.3202 40.88 87.5335 40.88C87.9069 40.88 88.1869 41.0533 88.3735 41.4C88.5869 41.72 88.5469 42.1467 88.2535 42.68ZM78.4135 58.68C76.1469 60.12 73.8135 61.6933 71.4135 63.4C68.9869 65.1067 66.5869 67.0133 64.2135 69.12C61.8135 71.2267 59.4669 73.5467 57.1735 76.08C54.8802 78.64 52.7202 81.48 50.6935 84.6C49.7335 86.0667 48.8802 87.56 48.1335 89.08C47.3869 90.6 46.7735 92.0667 46.2935 93.48C45.7869 94.8933 45.4269 96.2133 45.2135 97.44C44.9735 98.6667 44.8935 99.7333 44.9735 100.64C45.0269 101.573 45.2402 102.307 45.6135 102.84C45.9869 103.373 46.5202 103.64 47.2135 103.64C48.1202 103.64 49.3469 103.12 50.8935 102.08C52.4135 101.04 54.2802 99.32 56.4935 96.92C57.6935 95.6133 59.0402 93.8667 60.5335 91.68C62.0269 89.52 63.6802 86.88 65.4935 83.76C67.2802 80.64 69.2535 77 71.4135 72.84C73.5469 68.7067 75.8802 63.9867 78.4135 58.68ZM132.271 14.8C131.391 16.5067 130.124 18.4933 128.471 20.76C126.844 23 124.964 25.4267 122.831 28.04C120.724 30.6267 118.458 33.3467 116.031 36.2C113.604 39.0267 111.164 41.88 108.711 44.76L108.231 45.76C108.764 45.1467 109.391 44.5867 110.111 44.08C110.858 43.5467 111.604 43.0933 112.351 42.72C113.098 42.3467 113.804 42.08 114.471 41.92C115.164 41.7333 115.751 41.6933 116.231 41.8C116.924 41.9867 117.338 42.3333 117.471 42.84C117.604 43.32 117.431 43.8667 116.951 44.48C116.551 44.9867 116.031 45.4933 115.391 46C114.778 46.48 114.084 46.96 113.311 47.44C112.564 47.92 111.778 48.4 110.951 48.88C110.124 49.36 109.324 49.8533 108.551 50.36C108.978 51.2133 109.564 51.8267 110.311 52.2C111.084 52.5467 111.964 52.72 112.951 52.72C113.831 52.72 114.764 52.6 115.751 52.36C116.764 52.0933 117.791 51.7467 118.831 51.32C119.871 50.8933 120.898 50.4 121.911 49.84C122.924 49.2533 123.884 48.6667 124.791 48.08C125.698 47.4667 126.511 46.8533 127.231 46.24C127.978 45.6267 128.591 45.0533 129.071 44.52C129.178 44.3867 129.298 44.32 129.431 44.32C129.591 44.32 129.711 44.36 129.791 44.44C129.871 44.52 129.898 44.6267 129.871 44.76C129.871 44.8933 129.778 45.0533 129.591 45.24C128.818 45.96 127.791 46.8267 126.511 47.84C125.258 48.8267 123.871 49.7867 122.351 50.72C120.831 51.6267 119.258 52.4 117.631 53.04C116.004 53.68 114.444 54 112.951 54C111.884 54 110.818 53.7733 109.751 53.32C108.711 52.8667 107.898 52.16 107.311 51.2C106.858 51.5467 106.444 51.88 106.071 52.2C105.671 52.52 105.324 52.8667 105.031 53.24C104.791 53.5333 104.564 53.7333 104.351 53.84C104.138 53.9733 103.951 54.04 103.791 54.04C103.498 54.04 103.284 53.9333 103.151 53.72C102.991 53.5333 102.951 53.3333 103.031 53.12C103.564 51.76 104.298 50.0133 105.231 47.88C106.138 45.7467 107.178 43.4133 108.351 40.88C109.524 38.32 110.804 35.6667 112.191 32.92C113.578 30.1467 115.004 27.4667 116.471 24.88C117.938 22.2933 119.418 19.88 120.911 17.64C122.404 15.4 123.858 13.5333 125.271 12.04C126.338 10.92 127.418 10.0667 128.511 9.47999C129.631 8.86665 130.618 8.55999 131.471 8.55999C132.004 8.55999 132.444 8.67999 132.791 8.91999C133.138 9.15999 133.364 9.54665 133.471 10.08C133.578 10.5867 133.538 11.2267 133.351 12C133.191 12.7733 132.831 13.7067 132.271 14.8ZM110.111 41.72C112.591 38.84 114.951 36.0533 117.191 33.36C119.431 30.6667 121.458 28.16 123.271 25.84C125.111 23.4933 126.711 21.36 128.071 19.44C129.431 17.4933 130.471 15.8267 131.191 14.44C132.071 12.76 132.484 11.56 132.431 10.84C132.404 10.12 132.084 9.75999 131.471 9.75999C131.151 9.75999 130.778 9.85332 130.351 10.04C129.951 10.2267 129.511 10.48 129.031 10.8C128.551 11.12 128.058 11.52 127.551 12C127.071 12.4533 126.604 12.96 126.151 13.52C125.271 14.5867 124.351 15.84 123.391 17.28C122.458 18.6933 121.498 20.2133 120.511 21.84C119.551 23.4667 118.591 25.16 117.631 26.92C116.671 28.68 115.738 30.4267 114.831 32.16C113.951 33.8933 113.111 35.5733 112.311 37.2C111.511 38.8267 110.778 40.3333 110.111 41.72ZM108.471 48.68C109.164 48.3867 109.964 47.96 110.871 47.4C111.778 46.84 112.618 46.2667 113.391 45.68C114.164 45.0933 114.778 44.56 115.231 44.08C115.684 43.6 115.804 43.3067 115.591 43.2C115.298 43.04 114.804 43.12 114.111 43.44C113.444 43.7333 112.724 44.16 111.951 44.72C111.204 45.28 110.498 45.92 109.831 46.64C109.164 47.3333 108.711 48.0133 108.471 48.68ZM131.348 40.52C131.455 40.3333 131.681 40.24 132.028 40.24C132.215 40.24 132.401 40.28 132.588 40.36C132.801 40.4133 132.975 40.4933 133.108 40.6C133.268 40.68 133.375 40.7867 133.428 40.92C133.508 41.0267 133.508 41.1333 133.428 41.24C133.188 41.56 132.828 42.0933 132.348 42.84C131.868 43.5867 131.401 44.3867 130.948 45.24C130.521 46.0667 130.175 46.8533 129.908 47.6C129.668 48.3467 129.655 48.88 129.868 49.2C129.948 49.28 130.028 49.32 130.108 49.32C130.401 49.32 130.815 49.08 131.348 48.6C131.881 48.0933 132.455 47.5067 133.068 46.84C133.708 46.1733 134.348 45.4933 134.988 44.8C135.628 44.1067 136.188 43.5467 136.668 43.12C136.855 42.96 137.028 42.8533 137.188 42.8C137.348 42.7467 137.495 42.72 137.628 42.72C138.001 42.72 138.308 42.8533 138.548 43.12C138.788 43.36 138.935 43.5467 138.988 43.68C139.068 43.92 139.015 44.2933 138.828 44.8C138.668 45.28 138.455 45.8267 138.188 46.44C137.948 47.0267 137.695 47.6267 137.428 48.24C137.161 48.8267 136.975 49.36 136.868 49.84C136.735 50.4533 136.748 50.8933 136.908 51.16C137.095 51.4 137.375 51.52 137.748 51.52C138.281 51.52 138.935 51.32 139.708 50.92C140.508 50.4933 141.321 49.96 142.148 49.32C142.975 48.68 143.748 47.9733 144.468 47.2C145.188 46.4 145.735 45.64 146.108 44.92C146.161 44.84 146.241 44.8 146.348 44.8C146.455 44.8 146.561 44.8267 146.668 44.88C146.775 44.9067 146.855 44.96 146.908 45.04C146.988 45.0933 147.001 45.16 146.948 45.24C146.281 46.2533 145.508 47.2267 144.628 48.16C143.775 49.0667 142.895 49.8667 141.988 50.56C141.081 51.2267 140.188 51.76 139.308 52.16C138.455 52.56 137.695 52.76 137.028 52.76C136.361 52.76 135.855 52.5467 135.508 52.12C135.108 51.64 134.948 51.04 135.028 50.32C135.108 49.6 135.281 48.8667 135.548 48.12C135.815 47.3733 136.095 46.6933 136.388 46.08C136.681 45.4667 136.855 45.04 136.908 44.8C137.015 44.3733 136.908 44.2933 136.588 44.56C136.268 44.8267 135.828 45.2667 135.268 45.88C134.735 46.4667 134.135 47.1333 133.468 47.88C132.801 48.6 132.161 49.2133 131.548 49.72C131.095 50.0933 130.641 50.4 130.188 50.64C129.735 50.88 129.321 51 128.948 51C128.548 51 128.241 50.8267 128.028 50.48C127.815 50.1333 127.775 49.5333 127.908 48.68C128.015 47.96 128.201 47.2133 128.468 46.44C128.708 45.6667 129.001 44.92 129.348 44.2C129.668 43.48 130.001 42.8133 130.348 42.2C130.695 41.56 131.028 41 131.348 40.52ZM143.069 52.12C143.255 51.48 143.535 50.7333 143.909 49.88C144.255 49 144.629 48.12 145.029 47.24C145.429 46.36 145.829 45.5067 146.229 44.68C146.629 43.8533 146.975 43.16 147.269 42.6C147.429 42.3333 147.629 42.2 147.869 42.2C148.029 42.2 148.202 42.2533 148.389 42.36C148.575 42.44 148.735 42.56 148.869 42.72C149.002 42.8533 149.095 43 149.149 43.16C149.202 43.2933 149.202 43.4133 149.149 43.52C149.389 43.3067 149.629 43.16 149.869 43.08C150.135 42.9733 150.389 42.92 150.629 42.92C151.162 42.92 151.589 43.1467 151.909 43.6C152.255 44.0267 152.295 44.6267 152.029 45.4C151.949 45.64 151.775 46.0533 151.509 46.64C151.269 47.2 151.029 47.7867 150.789 48.4C150.549 48.9867 150.335 49.5333 150.149 50.04C149.989 50.52 149.949 50.8 150.029 50.88C150.135 51.0133 150.335 50.8933 150.629 50.52C150.949 50.12 151.309 49.6533 151.709 49.12C152.109 48.56 152.535 48.0267 152.989 47.52C153.442 46.9867 153.855 46.6533 154.229 46.52C154.602 46.3867 154.949 46.48 155.269 46.8C155.589 47.0933 155.669 47.4933 155.509 48C155.402 48.2667 155.229 48.68 154.989 49.24C154.749 49.7733 154.535 50.3333 154.349 50.92C154.189 51.5067 154.109 52.0267 154.109 52.48C154.135 52.9333 154.349 53.1867 154.749 53.24C155.255 53.2933 155.789 53.1467 156.349 52.8C156.935 52.4533 157.522 52 158.109 51.44C158.695 50.88 159.269 50.2533 159.829 49.56C160.389 48.8667 160.895 48.2 161.349 47.56C161.802 46.92 162.189 46.36 162.509 45.88C162.829 45.4 163.029 45.0933 163.109 44.96C163.215 44.7733 163.362 44.68 163.549 44.68C163.682 44.68 163.789 44.7467 163.869 44.88C163.949 44.9867 163.962 45.1067 163.909 45.24C163.802 45.4533 163.562 45.84 163.189 46.4C162.815 46.96 162.362 47.6 161.829 48.32C161.322 49.0133 160.749 49.7467 160.109 50.52C159.469 51.2667 158.815 51.9467 158.149 52.56C157.482 53.1467 156.815 53.6133 156.149 53.96C155.509 54.3333 154.909 54.4667 154.349 54.36C153.682 54.2533 153.229 53.96 152.989 53.48C152.749 53 152.629 52.4667 152.629 51.88C152.655 51.2933 152.775 50.7067 152.989 50.12C153.202 49.5333 153.402 49.0667 153.589 48.72C153.402 48.88 153.189 49.1333 152.949 49.48C152.709 49.8267 152.455 50.2 152.189 50.6C151.922 51 151.629 51.4 151.309 51.8C150.989 52.2 150.642 52.52 150.269 52.76C150.029 52.92 149.775 53 149.509 53C149.162 53 148.855 52.8667 148.589 52.6C148.349 52.3333 148.229 51.9733 148.229 51.52C148.229 50.9333 148.322 50.2933 148.509 49.6C148.695 48.9067 148.895 48.24 149.109 47.6C149.349 46.96 149.549 46.4 149.709 45.92C149.869 45.44 149.922 45.1467 149.869 45.04C149.815 44.9067 149.735 44.84 149.629 44.84C149.389 44.84 149.055 45.1467 148.629 45.76C148.202 46.3467 147.749 47.0667 147.269 47.92C146.789 48.7467 146.335 49.6267 145.909 50.56C145.455 51.4933 145.095 52.28 144.829 52.92C144.695 53.24 144.455 53.4 144.109 53.4C143.815 53.4 143.535 53.28 143.269 53.04C143.002 52.8 142.935 52.4933 143.069 52.12ZM171.35 44.84C171.19 45.08 170.977 45.4 170.71 45.8C170.443 46.1733 170.177 46.5733 169.91 47C169.643 47.4267 169.417 47.8533 169.23 48.28C169.043 48.7067 168.923 49.0667 168.87 49.36C168.763 49.9733 168.817 50.4133 169.03 50.68C169.27 50.92 169.577 51.04 169.95 51.04C170.323 51.04 170.737 50.9333 171.19 50.72C171.67 50.48 172.083 50.2 172.43 49.88C172.937 49.4267 173.43 48.9067 173.91 48.32C174.39 47.7333 174.817 47.1867 175.19 46.68C175.59 46.1467 175.91 45.6933 176.15 45.32C176.417 44.92 176.577 44.6933 176.63 44.64C176.71 44.56 176.803 44.52 176.91 44.52C177.043 44.52 177.163 44.6 177.27 44.76C177.377 44.92 177.363 45.08 177.23 45.24C176.857 45.8 176.39 46.4667 175.83 47.24C175.297 48.0133 174.697 48.76 174.03 49.48C173.39 50.1733 172.697 50.7733 171.95 51.28C171.203 51.76 170.443 52 169.67 52C169.057 52 168.523 51.8133 168.07 51.44C167.643 51.0667 167.39 50.48 167.31 49.68C167.043 50 166.737 50.3333 166.39 50.68C166.07 51.0267 165.71 51.3467 165.31 51.64C164.937 51.9333 164.537 52.1733 164.11 52.36C163.683 52.5467 163.257 52.64 162.83 52.64C162.163 52.64 161.59 52.4267 161.11 52C160.63 51.5467 160.443 50.8533 160.55 49.92C160.657 48.9067 160.95 47.9467 161.43 47.04C161.883 46.1333 162.443 45.3333 163.11 44.64C163.75 43.9467 164.443 43.4 165.19 43C165.963 42.6 166.683 42.4 167.35 42.4C168.043 42.4 168.617 42.6133 169.07 43.04C169.177 43.12 169.257 43.2133 169.31 43.32C169.39 43.4267 169.457 43.5467 169.51 43.68C169.617 43.52 169.737 43.3733 169.87 43.24C170.03 43.08 170.217 43 170.43 43C170.617 43 170.79 43.0533 170.95 43.16C171.137 43.2667 171.27 43.4133 171.35 43.6C171.457 43.7867 171.51 43.9867 171.51 44.2C171.537 44.4133 171.483 44.6267 171.35 44.84ZM168.67 44.56C168.75 44.2933 168.723 44.0933 168.59 43.96C168.457 43.8 168.243 43.72 167.95 43.72C167.603 43.72 167.27 43.8267 166.95 44.04C166.47 44.3333 165.963 44.7333 165.43 45.24C164.897 45.72 164.403 46.2667 163.95 46.88C163.497 47.4667 163.11 48.0933 162.79 48.76C162.443 49.4 162.243 50.0133 162.19 50.6C162.163 51.1867 162.377 51.48 162.83 51.48C163.177 51.48 163.617 51.32 164.15 51C164.71 50.6533 165.27 50.1733 165.83 49.56C166.39 48.9467 166.923 48.2133 167.43 47.36C167.963 46.5067 168.377 45.5733 168.67 44.56ZM173.076 52.76C173.689 51.3467 174.276 50.0133 174.836 48.76C175.369 47.48 175.849 46.3467 176.276 45.36C176.703 44.3467 177.063 43.5067 177.356 42.84C177.676 42.1733 177.903 41.72 178.036 41.48C178.249 41.16 178.569 41 178.996 41C179.369 41 179.663 41.12 179.876 41.36C180.089 41.6 180.009 41.9467 179.636 42.4C179.449 42.6133 179.236 42.96 178.996 43.44C178.756 43.8933 178.503 44.4133 178.236 45C178.956 43.64 179.676 42.6133 180.396 41.92C181.116 41.2267 181.729 40.88 182.236 40.88C182.556 40.88 182.809 41.0267 182.996 41.32C183.209 41.5867 183.316 42.0267 183.316 42.64C183.343 44.08 183.609 45.1467 184.116 45.84C184.649 46.5067 185.249 46.84 185.916 46.84C186.396 46.84 186.863 46.68 187.316 46.36C187.769 46.0133 188.169 45.5333 188.516 44.92C188.596 44.7867 188.703 44.72 188.836 44.72C188.969 44.72 189.089 44.7733 189.196 44.88C189.303 44.9867 189.329 45.1067 189.276 45.24C188.929 45.9867 188.409 46.5867 187.716 47.04C187.049 47.4667 186.343 47.68 185.596 47.68C184.743 47.68 183.969 47.3467 183.276 46.68C182.609 46.0133 182.236 44.92 182.156 43.4C182.103 43.0267 181.996 42.84 181.836 42.84C181.729 42.84 181.596 42.9067 181.436 43.04C181.303 43.1467 181.129 43.3467 180.916 43.64C180.436 44.28 179.889 45.1067 179.276 46.12C178.663 47.1333 178.063 48.1467 177.476 49.16C176.889 50.1733 176.369 51.1067 175.916 51.96C175.436 52.7867 175.116 53.3467 174.956 53.64C174.689 54.12 174.356 54.36 173.956 54.36C173.609 54.36 173.329 54.2 173.116 53.88C172.903 53.5867 172.889 53.2133 173.076 52.76Z" fill="#0C121E" fill-opacity="0.4"/>
</svg>
